<svg id="Icon_Twitter" data-name="Icon Twitter" xmlns="http://www.w3.org/2000/svg" width="34" height="34" viewBox="0 0 34 34">
  <rect id="Rectangle_8" data-name="Rectangle 8" width="34" height="34" rx="10" fill="#fff"/>
  <g id="twitter" transform="translate(-185 -109.074)">
    <g id="Group_2" data-name="Group 2" transform="translate(190 116.449)">
      <path id="Path_1" data-name="Path 1" d="M24,50.249a10.469,10.469,0,0,1-2.835.757,4.792,4.792,0,0,0,2.165-2.65,9.991,9.991,0,0,1-3.12,1.16A4.992,4.992,0,0,0,16.615,48a4.843,4.843,0,0,0-4.8,5.889A14.051,14.051,0,0,1,1.671,48.874a4.715,4.715,0,0,0,1.512,6.407,4.957,4.957,0,0,1-2.223-.59v.053A4.849,4.849,0,0,0,4.9,59.454a5.033,5.033,0,0,1-1.29.158,4.462,4.462,0,0,1-.932-.082,4.952,4.952,0,0,0,4.6,3.34,10.053,10.053,0,0,1-6.1,2.045A9.458,9.458,0,0,1,0,64.849,14.118,14.118,0,0,0,7.548,67a13.72,13.72,0,0,0,14-13.642c0-.212-.007-.417-.018-.62A9.681,9.681,0,0,0,24,50.249Z" transform="translate(0 -48)" fill="#161336"/>
    </g>
  </g>
</svg>
