<svg id="Icon_GitHub" data-name="Icon GitHub" xmlns="http://www.w3.org/2000/svg" width="34" height="34" viewBox="0 0 34 34">
  <rect id="Rectangle_9" data-name="Rectangle 9" width="34" height="34" rx="10" fill="#fff"/>
  <g id="github" transform="translate(5.003 5.501)">
    <path id="Path_2" data-name="Path 2" d="M12.29,20.5c3.73,0,8.94.085,10.835-3.506A9.6,9.6,0,0,0,24,12.54h0a7.764,7.764,0,0,0-1.95-5.353A5.174,5.174,0,0,0,21.7,2.5a8.065,8.065,0,0,0-5.39,1.65,20.111,20.111,0,0,0-8.455.038A8.154,8.154,0,0,0,2.419,2.5a5.179,5.179,0,0,0-.344,4.715A8.756,8.756,0,0,0,1.01,16.993C2.98,20.626,8.5,20.5,12.29,20.5ZM7,11.035a21.468,21.468,0,0,1,2.8.281c3.418.493,5.215-.281,7.31-.281a3.634,3.634,0,0,1,3.675,3.872c0,4.12-4.015,4.748-7.53,4.748-2.419-.154-9.93.925-9.93-4.748A3.633,3.633,0,0,1,7,11.035Z" fill="#161336"/>
    <path id="Path_3" data-name="Path 3" d="M16.655,18.323c1.29,0,1.835-1.692,1.835-2.727s-.545-2.727-1.835-2.727S14.82,14.561,14.82,15.6s.545,2.727,1.835,2.727Z" transform="translate(0 -0.766)" fill="#161336"/>
    <path id="Path_4" data-name="Path 4" d="M7.47,18.323c1.29,0,1.835-1.692,1.835-2.727S8.759,12.87,7.47,12.87,5.635,14.562,5.635,15.6s.545,2.726,1.835,2.726Z" transform="translate(0 -0.766)" fill="#161336"/>
  </g>
</svg>
